<svg width="40%" height="100%" viewBox="0 -20 860 770" fill="none" xmlns="http://www.w3.org/2000/svg">
<g id="fridge_closed">
    <rect id="Rectangle 2" width="242" height="242" rx="13" transform="matrix(0.866025 0.5 -0.866025 0.5 219.578 498)" fill="#D9D9D9"/>
    <rect id="Rectangle 10" width="243.642" height="257.928" rx="12" transform="matrix(0.866025 0.5 -2.20305e-08 1 218 1.1308)" fill="#AA2626"/>
    <rect id="Rectangle 3" width="242" height="242" transform="matrix(0.866025 0.5 -2.20305e-08 1 219 256)" fill="#AA2626"/>
    <rect id="Rectangle 7" width="242" height="498.544" rx="17" transform="matrix(0.866025 -0.5 2.20305e-08 1 9 121)" fill="#FA0000"/>
    <g id="tiroir_bas">
        <rect id="Rectangle 23" width="221.524" height="240.735" rx="11" transform="matrix(0.866562 0.499069 -0.866562 0.499069 219.136 498.387)" fill="#EA6A6A"/>
        <rect id="Rectangle 26" width="224.43" height="87.9056" transform="matrix(0.866562 0.499069 -2.20853e-08 1 216.517 409)" fill="#D9D9D9"/>
        <rect id="Rectangle 18" width="240.626" height="86.5359" transform="matrix(0.866562 -0.499069 2.20853e-08 1 202.482 642.553)" fill="#CF2A2A"/>
        <rect id="Rectangle 25" width="224.43" height="87.9056" rx="18" transform="matrix(0.866562 0.499069 -2.20853e-08 1 8 530.605)" fill="#D9D9D9"/>
    </g>
    <g id="tiroir_haut">
        <rect id="Rectangle 24" width="221.429" height="240.63" transform="matrix(0.866025 0.5 -0.866025 0.5 219.629 408.971)" fill="#DF8585"/>
        <rect id="Rectangle 25_2" width="224.012" height="75.8824" transform="matrix(0.866025 0.5 -2.20305e-08 1 217 332)" fill="#D9D9D9"/>
        <rect id="Rectangle 20" width="240.178" height="75.9173" transform="matrix(0.866025 -0.5 2.20305e-08 1 203 564.005)" fill="#CF2A2A"/>
        <rect id="Rectangle 22" width="224.012" height="75.8824" transform="matrix(0.866025 0.5 -2.20305e-08 1 9 452.024)" fill="#D9D9D9"/>
    </g>
    <rect id="Rectangle 19" width="224.02" height="240.168" rx="7" transform="matrix(0.866025 0.5 -0.866025 0.5 216.993 328.99)" fill="#E59C9C"/>
    <g id="Rectangle 6" style="mix-blend-mode:plus-lighter">
        <rect width="242" height="242" rx="7" transform="matrix(0.866025 0.5 -0.866025 0.5 218.578 256)" fill="#D9D9D9"/>
    </g>
    <rect id="Rectangle 8" width="242" height="242" rx="7" transform="matrix(0.866025 0.5 -0.866025 0.5 218.578 242)" fill="#EA6A6A"/>
    <rect id="Rectangle 14" width="242" height="242" rx="7" transform="matrix(0.866025 0.5 -0.866025 0.5 217.578 171)" fill="#DF8585"/>
    <rect id="Rectangle 15" width="242" height="242" rx="7" transform="matrix(0.866025 0.5 -0.866025 0.5 217.578 86)" fill="#E69C9C"/>
    <rect id="Rectangle 12" width="246.18" height="250.144" rx="17" transform="matrix(0.866025 0.5 -0.866025 0.5 217.504 0.0430908)" fill="#DDC2C2"/>
    <rect id="Rectangle 9" width="241.332" height="504.822" rx="17" transform="matrix(0.866025 0.5 -2.20305e-08 1 8 113.338)" fill="#A38888"/>
    <g id="door">
        <g id="Rectangle 13" style="mix-blend-mode:plus-lighter">
            <rect width="5.76369" height="493.572" rx="2.88184" transform="matrix(0.867501 0.497435 -2.21818e-08 1 427 122.135)" fill="#DBC0C0"/>
        </g>
        <rect id="Rectangle 11" width="242.083" height="495.621" rx="5" transform="matrix(0.86747 -0.49749 2.21786e-08 1 222 243.379)" fill="#DBC0C0"/>
        <g id="Rectangle 26_2" style="mix-blend-mode:plus-lighter">
            <rect width="8.06945" height="494.318" rx="4.03472" transform="matrix(0.86747 0.49749 -2.21786e-08 1 217 240.526)" fill="#DBC0C0"/>
        </g>
        <path id="Rectangle 27" d="M428.559 124.804C429.865 124.055 429.865 122.84 428.559 122.091V122.091C427.252 121.341 425.133 121.341 423.827 122.091L219.528 239.255C218.221 240.005 218.221 241.22 219.528 241.969V241.969C220.834 242.718 222.953 242.718 224.26 241.969L428.559 124.804Z" fill="white"/>
        <g id="poignet_porte">
            <rect id="Rectangle 11_2" width="16.4361" height="35.276" rx="5" transform="matrix(0.878475 -0.477788 2.33861e-08 1 260.88 433.554)" fill="#8E8686"/>
            <rect id="Rectangle 30" width="17.586" height="35.2431" rx="5" transform="matrix(0.878505 0.477734 -2.33896e-08 1 245.256 425.157)" fill="#A99E9E"/>
            <rect id="Rectangle 29" width="17.9755" height="16.6956" rx="5" transform="matrix(0.878505 0.477734 -0.878505 0.477734 259.667 416.965)" fill="#BCB0B0"/>
        </g>
    </g>
</g>
</svg>
